<svg width="25" height="25" viewBox="0 0 25 25" fill="none" xmlns="http://www.w3.org/2000/svg">
<path id="Vector" d="M12.25 0.119049C9.0674 0.119049 6.01516 1.38333 3.76472 3.63377C1.51428 5.8842 0.25 8.93645 0.25 12.119C0.25 15.3016 1.51428 18.3539 3.76472 20.6043C6.01516 22.8548 9.0674 24.119 12.25 24.119C15.4326 24.119 18.4848 22.8548 20.7353 20.6043C22.9857 18.3539 24.25 15.3016 24.25 12.119C24.25 8.93645 22.9857 5.8842 20.7353 3.63377C18.4848 1.38333 15.4326 0.119049 12.25 0.119049ZM1.73 13.0257H5.07667C5.13 14.239 5.29933 15.4444 5.58333 16.6257H2.70333C2.16735 15.4932 1.83775 14.2741 1.73 13.0257ZM13.1567 5.82572V1.70572C14.4416 2.19402 15.4974 3.14521 16.1167 4.37238C16.3904 4.83549 16.6304 5.31549 16.8367 5.81238L13.1567 5.82572ZM17.45 7.62572C17.7593 8.80305 17.9433 10.0097 17.9967 11.2257H13.1567V7.62572H17.45ZM11.3433 1.70572V5.82572H7.66333C7.86889 5.32925 8.1095 4.84804 8.38333 4.38572C8.99996 3.15352 10.0561 2.19726 11.3433 1.70572ZM11.3433 7.62572V11.2257H6.51667C6.57 10.0097 6.754 8.80305 7.06333 7.62572H11.3433ZM5.07667 11.2124H1.73C1.83775 9.96404 2.16735 8.74494 2.70333 7.61238H5.58333C5.29771 8.79304 5.12802 9.99876 5.07667 11.2124ZM6.51667 13.0257H11.3433V16.6257H7.06333C6.75522 15.4482 6.57199 14.2416 6.51667 13.0257ZM11.3567 18.3591V22.479C10.0718 21.9908 9.01593 21.0396 8.39667 19.8124C8.12283 19.3501 7.88223 18.8688 7.67667 18.3724L11.3567 18.3591ZM13.1567 22.479V18.4257H16.8367C16.6311 18.9222 16.3905 19.4034 16.1167 19.8657C15.4974 21.0929 14.4416 22.0441 13.1567 22.5324V22.479ZM13.1567 16.559V12.959H17.9833C17.928 14.1749 17.7448 15.3816 17.4367 16.559H13.1567ZM19.4367 12.959H22.7833C22.6756 14.2074 22.346 15.4265 21.81 16.559H18.9167C19.1967 15.399 19.366 14.2164 19.4233 13.0257L19.4367 12.959ZM19.4367 11.159C19.3767 9.96736 19.2025 8.78417 18.9167 7.62572H21.7967C22.334 8.75905 22.6633 9.97772 22.77 11.2257L19.4367 11.159ZM20.77 5.82572H18.3833C17.9519 4.61259 17.326 3.47775 16.53 2.46572C18.1892 3.21049 19.6304 4.36712 20.7167 5.82572H20.77ZM7.97 2.46572C7.17403 3.47775 6.54807 4.61259 6.11667 5.82572H3.78333C4.86963 4.36712 6.31082 3.21049 7.97 2.46572ZM3.77 18.4657H6.11667C6.54807 19.6788 7.17403 20.8137 7.97 21.8257C6.30623 21.0697 4.8646 19.899 3.78333 18.4257L3.77 18.4657ZM16.5167 21.8257C17.3126 20.8137 17.9386 19.6788 18.37 18.4657H20.7167C19.6237 19.9048 18.1831 21.0426 16.53 21.7724L16.5167 21.8257Z" fill="black"/>
</svg>
