<svg width="25" height="25" viewBox="0 0 27 27" fill="none" xmlns="http://www.w3.org/2000/svg">
<!-- <g id="wpf:my-topic" clipPath="url(#clip0_32_1235)"> -->
<path id="Vector" d="M13.75 0.688012C6.75 0.688012 0.937002 5.75201 0.937002 12.124C0.937002 15.122 2.344 17.757 4.437 19.78C4.356 20.939 3.774 21.632 2.969 22.312C2.536 22.676 2.057 23.017 1.625 23.437C1.193 23.857 0.750002 24.427 0.750002 25.217C0.749612 25.439 0.823104 25.6548 0.958894 25.8304C1.09469 26.0061 1.28505 26.1315 1.5 26.187C3.378 26.69 5.4 26.319 7.25 25.655C8.916 25.057 10.322 24.172 11.438 23.312C12.192 23.436 12.952 23.53 13.75 23.53C20.75 23.53 26.563 18.496 26.563 12.124C26.563 5.75301 20.75 0.688012 13.75 0.688012ZM13.75 2.68801C19.796 2.68801 24.563 6.97801 24.563 12.125C24.563 17.273 19.796 21.531 13.75 21.531C12.965 21.531 12.213 21.484 11.469 21.344C11.3233 21.3101 11.1718 21.3092 11.0258 21.3416C10.8797 21.374 10.7427 21.4387 10.625 21.531C9.722 22.29 8.207 23.202 6.594 23.781C5.6 24.138 4.594 24.301 3.656 24.344C3.866 24.174 4.033 24.054 4.281 23.844C5.288 22.994 6.5 21.628 6.5 19.562C6.49932 19.4197 6.46829 19.2792 6.40896 19.1499C6.34964 19.0205 6.2634 18.9054 6.156 18.812C4.156 17.086 2.938 14.734 2.938 12.125C2.938 6.97601 7.704 2.68801 13.75 2.68801ZM13.75 5.56201C12.285 5.56201 11.031 6.57201 11.031 8.46901C11.031 9.70601 11.615 10.944 12.375 11.719C12.671 12.496 12.143 12.803 12.031 12.844C10.498 13.398 8.687 14.407 8.687 15.406V15.781C8.687 17.141 11.31 17.437 13.75 17.437C16.194 17.437 18.813 17.141 18.813 15.781V15.406C18.813 14.379 17.016 13.376 15.406 12.844C15.332 12.82 14.867 12.6 15.156 11.719C15.911 10.941 16.469 9.70201 16.469 8.46901C16.469 6.57301 15.215 5.56201 13.75 5.56201Z" fill="current"/>
<!-- </g> -->
<!-- <defs>
<clipPath id="clip0_32_1235">
<rect width="26" height="26" fill="white" transform="translate(0.75 0.5)"/>
</clipPath>
</defs> -->
</svg>
