<svg width="148" height="56" viewBox="0 0 148 56" fill="none" xmlns="http://www.w3.org/2000/svg">
<path d="M97.1484 10V36.2231C100.528 36.3734 103.899 36.5557 107.26 36.7701V42.3299C101.929 41.9897 96.5924 41.7315 91.2525 41.5555V10H97.1484ZM144 10.0031L136.323 27.0383L143.998 45.9953L143.99 45.9987C141.752 45.694 139.512 45.4041 137.27 45.1291L132.959 34.4894L128.608 44.1414C126.544 43.9231 124.478 43.7173 122.412 43.5238L129.896 26.9242L123.042 10.0034H129.419L133.257 19.4728L137.524 10.0031H144ZM71.0176 41.28V10.0029H87.4758V15.6127H76.9135V22.8827H84.9052V28.4425H76.9135V41.2789L71.0176 41.28ZM49.0023 15.6129V10.0026H67.2379V15.6127H61.0678V41.432C59.0998 41.4817 57.1341 41.5398 55.1725 41.6108V15.6129H49.0023ZM28.8467 43.227V10.0037H45.2229V15.6132H34.7418V23.2119C37.1497 23.1824 40.5734 23.1491 42.7034 23.1538V28.7142C40.0371 28.6828 37.0274 28.7492 34.7418 28.771V37.1883C38.2329 36.925 41.7268 36.6964 45.2229 36.5026V42.063C39.7578 42.3647 34.2984 42.7525 28.8467 43.227ZM17.2811 30.3744L17.2809 10.0026H23.1767V43.7515C21.0215 43.9636 18.8702 44.189 16.7228 44.4277L9.89531 25.656V45.2317C7.92656 45.477 5.96146 45.7331 4 46V10.0031H9.60301L17.2811 30.3744ZM112.124 42.6652V10.0031H118.02V43.1312C116.057 42.9638 114.092 42.8091 112.124 42.6652Z" fill="#E50914"/>
</svg>
