<svg width="25" height="25" viewBox="0 0 25 25" fill="none" xmlns="http://www.w3.org/2000/svg">
<g id="bxs:report" clip-path="url(#clip0_32_1226)">
<path id="Vector" d="M22.1 7.31905L14.9 0.119049H5.30002C4.6635 0.119049 4.05306 0.371905 3.60297 0.821993C3.15288 1.27208 2.90002 1.88253 2.90002 2.51905V21.719C2.90002 22.3556 3.15288 22.966 3.60297 23.4161C4.05306 23.8662 4.6635 24.119 5.30002 24.119H19.7C20.3365 24.119 20.947 23.8662 21.3971 23.4161C21.8472 22.966 22.1 22.3556 22.1 21.719V7.31905ZM8.90002 20.5191H6.50002V9.71905H8.90002V20.5191ZM13.7 20.5191H11.3V13.319H13.7V20.5191ZM18.5 20.5191H16.1V16.9191H18.5V20.5191ZM14.9 8.51905H13.7V2.51905L19.7 8.51905H14.9Z" fill="black"/>
</g>
<defs>
<clipPath id="clip0_32_1226">
<rect width="24" height="24" fill="white" transform="translate(0.5 0.119049)"/>
</clipPath>
</defs>
</svg>
